<svg height="117.306" viewBox="0 0 137.887 117.306" width="137.887" xmlns="http://www.w3.org/2000/svg"><g fill="white"><path d="m602.777 596.628a16.72 16.72 0 0 1 -12.663-5.112q-4.882-5.111-4.882-13.671v-1.2a22.963 22.963 0 0 1 2.177-10.17 16.973 16.973 0 0 1 6.084-7 15.3 15.3 0 0 1 8.472-2.529q7.463 0 11.6 4.917t4.139 14.079v2.724h-25.927a13.6 13.6 0 0 0 3.307 9.143 10.392 10.392 0 0 0 8.047 3.485 11.4 11.4 0 0 0 5.869-1.422 14.733 14.733 0 0 0 4.209-3.75l4 3.112q-4.809 7.394-14.432 7.394zm-.813-34.312a8.728 8.728 0 0 0 -6.649 2.883 14.006 14.006 0 0 0 -3.326 8.083h19.172v-.5q-.283-4.988-2.688-7.729a8.222 8.222 0 0 0 -6.509-2.737z" transform="translate(-560.83 -501.238)"/><path d="m632.393 557.648.212 4.81a13.947 13.947 0 0 1 11.461-5.518q12.132 0 12.239 13.689v25.292h-6.543v-25.327q-.037-4.139-1.892-6.12t-5.784-1.981a9.439 9.439 0 0 0 -5.589 1.7 11.528 11.528 0 0 0 -3.75 4.457v27.273h-6.547v-38.275z" transform="translate(-564.655 -501.238)"/><path d="m675.495 547.5v9.269h7.145v5.058h-7.145v23.765a5.311 5.311 0 0 0 .955 3.453 4.018 4.018 0 0 0 3.254 1.151 15.793 15.793 0 0 0 3.113-.425v5.275a19.083 19.083 0 0 1 -5.023.7q-4.387 0-6.615-2.653t-2.228-7.534v-23.734h-6.969v-5.058h6.969v-9.267z" transform="translate(-567.996 -500.357)"/><path d="m708.5 563.519a19.71 19.71 0 0 0 -3.218-.247q-6.439 0-8.737 5.482v27.167h-6.545v-38.273h6.367l.106 4.422a10.189 10.189 0 0 1 9.126-5.13 6.686 6.686 0 0 1 2.9.5z" transform="translate(-570.611 -501.238)"/></g><g fill="#ffc013"><path d="m611.248 524.33a45.709 45.709 0 0 1 7.326 1.645v-23.65h10.664v-7.325h-27.792v7.325h9.8z" transform="translate(-562.344 -495)"/><path d="m596.177 524.475v-29.475h-7.326v31.3a45.772 45.772 0 0 1 7.326-1.825z" transform="translate(-561.168 -495)"/><path d="m565.642 540.172v-24.49h13.788v-5.925h-13.788v-7.433h15.081v-7.324h-22.406v57.113a46.019 46.019 0 0 1 7.325-11.941z" transform="translate(-558.317 -495)"/><path d="m614.546 602.861a32.706 32.706 0 1 1 0-59.316v-10.48a42.441 42.441 0 1 0 0 80.276z" transform="translate(-558.317 -498.339)"/></g></svg>